<?xml version="1.0" encoding="UTF-8" standalone="no"?>
<!-- Created with Inkscape (http://www.inkscape.org/) -->

<svg
   width="85.606209mm"
   height="78.931427mm"
   viewBox="0 0 85.606209 78.931427"
   version="1.1"
   id="svg1"
   xmlns:inkscape="http://www.inkscape.org/namespaces/inkscape"
   xmlns:sodipodi="http://sodipodi.sourceforge.net/DTD/sodipodi-0.dtd"
   xmlns="http://www.w3.org/2000/svg"
   xmlns:svg="http://www.w3.org/2000/svg">
  <sodipodi:namedview
     id="namedview1"
     pagecolor="#505050"
     bordercolor="#eeeeee"
     borderopacity="1"
     inkscape:showpageshadow="0"
     inkscape:pageopacity="0"
     inkscape:pagecheckerboard="0"
     inkscape:deskcolor="#d1d1d1"
     inkscape:document-units="mm" />
  <defs
     id="defs1">
    <inkscape:path-effect
       effect="roughen"
       id="path-effect1"
       is_visible="true"
       lpeversion="1.2"
       global_randomize="4.1;1"
       displace_x="0.42;1"
       displace_y="0.72;1"
       method="size"
       max_segment_size="1.26055"
       segments="2"
       handles="along"
       shift_nodes="true"
       fixed_displacement="false"
       spray_tool_friendly="false" />
  </defs>
  <g
     inkscape:label="Layer 1"
     inkscape:groupmode="layer"
     id="layer1"
     transform="translate(-47.292665,-39.241553)">
    <path
       style="fill:#9d5f8d;fill-opacity:1;stroke:#9d5f8d;stroke-width:6.6;stroke-miterlimit:4.2;stroke-opacity:1;paint-order:stroke fill markers"
       id="rect1"
       width="63.027527"
       height="63.027527"
       x="57.350983"
       y="49.587646"
       inkscape:path-effect="#path-effect1"
       sodipodi:type="rect"
       d="m 57.276649,48.778747 0.985453,0.0056 2.568492,0.351385 -0.0078,-0.628859 1.274978,-0.407713 1.451835,0.0028 1.521953,0.289317 0.639334,-0.854801 2.109427,0.405484 0.707631,0.02664 1.50231,0.29572 0.986068,0.04791 1.24411,0.03993 0.824299,-1.70213 1.442826,-0.923112 2.135112,0.181638 0.79399,0.110488 1.231677,0.147342 1.265432,0.193491 2.597122,0.224793 -0.178411,-2.001122 1.680098,0.307382 1.125429,0.220199 2.01969,0.757671 0.207368,-0.187365 1.283768,0.03064 1.141271,-0.265607 1.243243,-0.237998 1.427204,-0.811769 1.502288,0.103455 1.323324,0.200864 1.065007,-1.213644 2.877527,1.000718 0.311759,0.341522 1.245339,0.706035 1.49483,0.288545 -0.038,-0.877813 2.17973,0.748114 0.47416,-1.909054 2.54398,1.076051 1.57291,0.369667 0.32131,-0.276666 2.0045,1.19033 0.2069,-0.184984 1.33729,0.464677 0.79108,-1.293543 2.14749,0.8371 1.19778,-0.268867 1.6368,0.944722 1.00644,-0.279712 0.60047,1.975695 0.10937,1.300124 1.35948,1.710289 0.53621,0.966897 -0.18456,-1.511454 -0.14473,3.725153 0.26958,1.737551 -0.0754,0.750371 0.65933,1.678372 -0.0305,0.939876 0.69068,1.516561 -0.0919,0.952447 -0.32733,0.588751 0.30622,2.22933 0.0616,1.136256 0.18678,1.414954 0.35433,1.444154 0.82743,1.280994 -0.38693,-0.53138 -0.1444,2.694455 -0.33965,0.371058 0.7774,2.146707 0.78745,1.804032 -0.11866,-0.07648 -0.38766,1.874055 0.35552,1.475976 -0.25734,1.073664 -0.24491,-0.630797 -0.37861,3.209749 0.1457,1.444993 -0.26551,0.372603 -0.43222,1.277407 0.71889,2.312565 -0.27539,0.486918 -0.42651,1.169315 -0.25044,1.464922 -0.15281,1.222521 0.0943,1.291808 -0.56226,-0.127227 -0.37406,1.596263 0.7049,2.541875 -0.25775,-0.910166 -0.55868,2.642034 -0.26602,1.44571 0.74195,1.87046 -0.43201,0.67392 0.34285,1.97726 -0.50169,0.79624 -0.57797,-1.13864 -1.03098,2.21492 0.86749,2.14368 -0.12958,1.77253 -1.05418,0.67389 -0.92632,0.20642 -1.37728,0.25036 -1.38203,0.0439 -0.40873,0.34767 -1.28635,0.35653 -1.14864,-0.0258 -0.86667,0.25436 -2.21422,0.37105 -1.4011,0.21064 -1.53319,-0.18897 -1.25679,-0.50425 -0.70769,0.47353 -1.55746,0.0833 -1.62016,-1.33468 -0.94139,-0.15131 -1.21485,-0.0528 -1.424528,-0.77235 -1.036548,0.005 -1.127961,0.14772 -1.501057,-0.29204 -0.796754,0.38743 -1.220589,0.42262 -1.00615,0.58114 -1.812845,-0.0664 0.0079,0.22964 -2.299861,0.15506 -1.567011,-0.32064 -1.128318,-0.10058 -1.209163,-0.0603 -1.108353,0.14621 -1.414135,-0.17079 -1.229783,-0.39184 -1.380935,-1.02264 -0.998498,0.0572 -1.329827,-0.0553 -1.334363,-0.56299 -1.241044,-0.0966 -0.212498,0.32108 -2.198912,-0.22742 -0.723638,0.69441 -1.994623,-1.11228 -0.01308,0.79407 -2.132251,0.1633 -1.271603,0.073 -1.165551,0.0973 -1.306782,0.0515 -1.068205,0.32007 -1.356223,0.0565 -1.297119,-2.71577 -1.881032,2.11474 -0.836645,-0.0765 0.159248,-0.99664 0.496633,-0.99951 -0.114248,-1.86788 -0.09322,-1.55351 -0.08961,-1.58478 -0.206789,-0.80013 0.559961,-0.53655 0.06214,-1.40004 0.254975,-0.90877 1.037366,-1.13777 -0.277473,-2.26476 -0.04481,-0.753018 0.205229,-1.046903 0.368582,-1.077577 1.133648,-1.360777 0.700957,-0.928968 0.196442,-1.518019 0.555489,-1.066293 -0.463736,-2.463537 0.666881,-0.498014 -0.514542,-2.788986 -0.226444,-0.561338 0.142831,-0.499034 0.663178,-1.138768 -0.294094,-1.748711 -0.0377,-0.807281 -0.52154,-3.410389 -0.0091,-0.01595 0.166579,-0.02155 -0.04052,-1.269824 -0.466835,-2.016472 0.01396,-0.497697 -0.245194,-1.424107 0.158375,-0.762514 0.318189,-1.645845 -0.561128,-2.399736 0.07258,-0.04032 0.0843,-0.858125 -0.103879,-1.666787 0.3649,-0.708496 -0.639228,-2.379304 -0.266863,-1.547154 -0.164389,-1.72614 -0.08209,-0.17329 0.0026,-0.72716 -0.40262,-1.297002 -0.570387,-3.121446 0.233406,0.221346 -0.748108,-1.034492 -0.920458,-2.095637 z"
       inkscape:export-filename="grimoire.png"
       inkscape:export-xdpi="96"
       inkscape:export-ydpi="96" />
    <text
       xml:space="preserve"
       style="font-style:normal;font-variant:normal;font-weight:normal;font-stretch:normal;font-size:42.4119px;font-family:'IM FELL English PRO';-inkscape-font-specification:'IM FELL English PRO';fill:#000000;fill-opacity:1;stroke:#000000;stroke-width:0;stroke-miterlimit:4.2;stroke-dasharray:none;stroke-opacity:1;paint-order:stroke fill markers"
       x="59.896767"
       y="108.15537"
       id="text1"><tspan
         sodipodi:role="line"
         id="tspan1"
         style="fill:#000000;fill-opacity:1;stroke:#000000;stroke-width:0;stroke-dasharray:none;stroke-opacity:1"
         x="59.896767"
         y="108.15537">Gr</tspan></text>
  </g>
</svg>
