<?xml version="1.0" encoding="UTF-8" standalone="no"?>
<!-- Created with Inkscape (http://www.inkscape.org/) -->

<svg
   width="79.167122mm"
   height="76.223663mm"
   viewBox="0 0 79.167122 76.223663"
   version="1.1"
   id="svg1"
   xmlns:inkscape="http://www.inkscape.org/namespaces/inkscape"
   xmlns:sodipodi="http://sodipodi.sourceforge.net/DTD/sodipodi-0.dtd"
   xmlns="http://www.w3.org/2000/svg"
   xmlns:svg="http://www.w3.org/2000/svg">
  <sodipodi:namedview
     id="namedview1"
     pagecolor="#505050"
     bordercolor="#eeeeee"
     borderopacity="1"
     inkscape:showpageshadow="0"
     inkscape:pageopacity="0"
     inkscape:pagecheckerboard="0"
     inkscape:deskcolor="#d1d1d1"
     inkscape:document-units="mm" />
  <defs
     id="defs1">
    <inkscape:path-effect
       effect="roughen"
       id="path-effect1-3"
       is_visible="true"
       lpeversion="1.2"
       global_randomize="1.2;1"
       displace_x="0.92;1"
       displace_y="1.92;1"
       method="size"
       max_segment_size="1.261"
       segments="2"
       handles="rand"
       shift_nodes="true"
       fixed_displacement="false"
       spray_tool_friendly="false" />
  </defs>
  <g
     inkscape:label="Layer 1"
     inkscape:groupmode="layer"
     id="layer1"
     transform="translate(-53.974046,-149.42855)">
    <path
       style="fill:#e60073;fill-opacity:1;stroke:#e60073;stroke-width:6.6;stroke-miterlimit:4.2;stroke-opacity:1;paint-order:stroke fill markers"
       id="rect1-6"
       width="63.027527"
       height="63.027527"
       x="57.350983"
       y="49.587646"
       inkscape:path-effect="#path-effect1-3"
       sodipodi:type="rect"
       d="m 57.240239,48.304338 1.163115,0.656332 1.463635,-0.01215 1.274579,0.01702 1.025271,-1.339073 1.576679,0.08991 1.306468,0.119994 1.177382,-0.05771 1.203965,-0.109549 1.473674,0.297606 1.305097,0.245833 0.890999,-0.355365 1.191743,-1.347052 1.592498,-1.580187 1.919548,0.294871 0.842589,0.01507 1.272323,0.07763 1.441621,0.40378 1.096326,0.207504 1.169212,-0.60173 1.362172,-1.419726 1.549264,-0.152463 1.449194,0.221668 1.225526,-0.410166 1.434226,0.255175 1.163096,0.07982 1.756267,0.59396 0.720698,0.169664 2.022122,0.44785 0.291722,-0.296241 1.380071,0.153049 1.346303,0.351578 1.461659,0.674544 0.657809,-0.07875 1.335538,0.147497 1.2484,0.16257 1.24187,-0.0341 1.36548,0.286508 1.28537,0.424989 0.87644,-0.330929 1.50804,-0.06216 1.46468,0.398119 1.11054,0.223085 1.74332,0.768759 1.00358,0.236759 1.25006,0.250445 0.67901,0.136904 1.28952,0.400162 0.92312,-0.561756 2.01861,1.234406 0.54741,-0.292786 0.11152,1.398486 -0.22296,0.0864 -0.10828,2.037838 0.0831,1.599939 0.0603,1.297415 -0.0983,0.669442 -4.9e-4,1.758039 0.6346,1.393247 -0.0332,0.514014 0.66961,1.972407 -0.0397,0.201262 -0.10485,2.127371 0.74456,1.451715 -0.11255,0.832461 0.25332,1.775678 0.58591,1.489185 -0.14716,0.818644 0.008,1.503471 0.44349,1.701627 -0.0714,0.325731 -0.29515,0.396129 0.28372,3.18748 0.37624,1.280747 0.008,0.857319 -0.14353,1.113822 0.11716,1.47991 -0.0268,1.259608 0.30937,1.618274 0.41588,1.250477 -0.36554,-0.349983 -0.41347,2.354567 -0.18319,1.423792 -0.25832,-0.420405 -0.35611,2.746491 -0.13014,1.380191 0.7736,1.281323 -0.0814,1.650042 0.40674,1.418 0.4017,1.42853 -0.32111,1.153503 -0.30998,1.20973 0.2902,1.34139 -0.44594,1.32324 -0.15925,1.38463 -0.0664,1.12009 0.0877,1.64286 0.14183,1.37724 -1.61494,0.2523 -0.60222,1.02995 -0.46025,0.81261 -1.43813,-0.57227 -1.22889,-0.32163 -0.98635,0.23361 -1.04063,0.41443 -1.58351,0.0621 -0.75807,0.24948 -1.86741,-0.21447 -1.18615,-1.9721 -1.42727,-0.1854 -0.62939,0.1915 -1.04818,0.35011 -1.97742,0.14049 -1.27604,0.066 -1.07831,0.30469 -1.43788,-0.21521 -1.23404,0.066 -0.716547,0.32621 -1.801522,0.0774 -1.408949,-0.30919 -0.753885,0.5511 -1.320469,0.16409 -1.565309,-0.0577 -1.198092,0.13038 -0.878969,0.25171 -1.668689,0.046 -1.157142,0.0961 -1.379013,-5.2e-4 -0.856151,0.0313 -1.642861,0.0485 -1.284907,-0.0191 -1.197514,0.10731 -1.384416,-0.85171 -1.387008,-0.44737 -1.14724,0.11767 -1.307829,-1.62183 -1.755888,-0.44071 -1.371516,0.09 -0.991187,0.60845 -1.326098,-1.1907 -1.812545,0.42104 -0.51516,0.74713 -1.510042,0.4712 -0.459618,0.4194 -1.81296,0.35338 -1.234085,0.16206 -1.158835,0.40782 -1.247952,-1.10982 -1.516121,1.35762 -0.681313,0.47532 -1.375986,-0.47593 -0.199233,-1.80863 -0.147721,-1.10371 0.05366,-0.73899 -0.111148,-2.46165 -0.118901,-0.4014 0.79213,-0.77012 -0.03521,-1.52829 0.596385,-1.0771 -0.266159,-2.732561 -0.07581,-0.949219 -0.07994,-0.390072 -0.05679,-1.0794 -0.06375,-1.285279 -0.179631,-1.739568 0.293156,-0.248564 -0.0075,-1.587444 0.04031,-1.212684 -0.196737,-1.860243 0.696461,-0.161571 0.09801,-1.620195 0.0243,-1.28051 -0.04313,-1.529611 -0.182382,-1.565606 0.04395,-0.748634 0.071,-1.130748 0.101984,-1.119222 0.124416,-1.291273 -0.0082,-1.391941 0.414342,-0.936766 -0.367631,-2.72137 -0.07449,-1.046849 -0.05058,-0.431272 0.0051,-1.143998 0.181491,-1.172053 0.01282,-1.247679 0.538955,-1.140719 0.563958,-1.349121 -0.13475,-1.415962 -0.206919,-1.411985 -0.185683,-1.218711 -0.22402,-1.349896 0.08575,-0.6899 -0.334476,-1.801838 -0.347441,-1.944604 -0.217632,-2.095121 -0.08409,-0.228973 -0.309389,-1.968295 0.09324,0.135492 0.09259,-0.572592 z"
       transform="translate(1.7710009,109.25845)" />
    <text
       xml:space="preserve"
       style="font-style:normal;font-variant:normal;font-weight:normal;font-stretch:normal;font-size:42.4119px;font-family:'IM FELL English PRO';-inkscape-font-specification:'IM FELL English PRO';fill:#000000;fill-opacity:1;stroke:#000000;stroke-width:0;stroke-miterlimit:4.2;stroke-dasharray:none;stroke-opacity:1;paint-order:stroke fill markers"
       x="60.000313"
       y="215.27376"
       id="text1-4"><tspan
         sodipodi:role="line"
         id="tspan1-7"
         style="fill:#000000;fill-opacity:1;stroke:#000000;stroke-width:0;stroke-dasharray:none;stroke-opacity:1"
         x="60.000313"
         y="215.27376">Sc</tspan></text>
  </g>
</svg>
